/* XPM */
static char *_2bc8ed268d4478acef52190e1e82aa7w2DU5LTPMBYLhxLW[] = {
/* columns rows colors chars-per-pixel */
"64 64 10 1 ",
"  c #4F3E34",
". c #353540",
"X c #735B42",
"o c #446350",
"O c #557D55",
"+ c #E39347",
"@ c #EEB551",
"# c #918D8D",
"$ c #BFB8B4",
"% c #EDE4DA",
/* pixels */
"XXXXXXXXXXXXXXXXXXXXXXXXXXXXXXXXXXXXXXXXXXXXXXXXXXXXXXXXXXXXXXXo",
"XXXoooooooooooooooooooooo.............oooooooooooooooooooooooooo",
"ooooooooooooooooooooooooo.............oooooooooooooooooooooooooo",
"ooooooooooooooooooooooooo.............oooooooooooooooooooooooooo",
"oo.oo.oo.oo.oo.oo.oo.oo.o....+++@@@...oo.oo.oo.oo.oo.oo.oo.oo.oo",
"oo.oo.oo.oo.oo.oo.oo.oo.o....+++@@@...oo.oo.oo.oo.oo.oo.oo.oo.oo",
"oo.oo.oo.oo.oo.oo.oo.oo.o....+++@@@...oo.oo.oo.oo.oo.oo.oo.oo.oo",
"oo.oo.oo.oo.oo.oo.oo.oo.o....   XXX...oo.oo.oo.oo.oo.oo.oo.oo.oo",
"oo.oo.oo.oo.oo.oo.oo.oo.o....   XXX...oo.oo.oo.oo.oo.oo.oo.oo.oo",
"oo.oooooooooooooooooooooo....   XXX...oooooooooooooooooooooooooo",
"ooooooooooooooooooooooooo....   XXX...oooooooooooooooooooooooooo",
"ooooooooooooo.XXXXXXXXXXX....   XXX...ooooooooooooo.XXXXXXXXXXXo",
"ooooooooooooo.XXXXXXXXXXX....   XXX...ooooooooooooo.XXXXXXXXXXXo",
"ooooooooooooooooooooooooo....   XXX...oooooooooooooooooooooooooo",
"ooooooooooooooooooooooooo....   XXX...oooooooooooooooooooooooooo",
"ooooooooooooooooooooooooo....   XXX...oooooooooooooooooooooooooo",
"ooooooooooooooooooooooooo....   XXX...oooooooooooooooooooooooooo",
"ooooooooooooooooooo..........      ...........oooooooooooooooooo",
"ooooooooooooooooooo..........      ...........oooooooooooooooooo",
"ooooooooooooooooooo..........      ...........oooooooooooooooooo",
"ooooooooooooooooooo...++++++++++@@@@@@@@@@@...oooooooooooooooooo",
"ooooooooooooooooooo...++++++++++@@@@@@@@@@@...oooooooooooooooooo",
"ooooooooooooooooooo...++++++++++@@@@@@@@@@@...oooooooooooooooooo",
"ooooooooooooooooooo...++++++++++@@@@@@@@@@@...oooooooooooooooooo",
"ooooooooooooooooooo...++++++++++@@@@@@@@@@@...oooooooooooooooooo",
"ooooooooooooooooooo......++++$$$%%%@@@........oooooooooooooooooo",
"ooooooooooooooooooo......++++$$$%%%@@@........oooooooooooooooooo",
"ooooooooooooooooooo......++++$$$%%%@@@........oooooooooooooooooo",
"oooooooooooooo...........$$$$$$$%%%%%%...........ooooooooooooooo",
"oooooooooooooo...........$$$$$$$%%%%%%...........ooooooooooooooo",
"oooooooooooooo...........$$$$$$$%%%%%%...........ooooooooooooooo",
"oooooooooooooo.....$$$...$$$$$$$%%%%%%.....%%%...ooooooooooooooo",
"oooooooooooooo.....$$$...$$$$$$$%%%%%%.....%%%...ooooooooooooooo",
"oo.oo.oo.oo.oo.....$$$...$$$$$$$%%%%%%.....%%%...oo.oo.oo.oo.oo.",
"oo.oo.oo.oo.oo.....$$$...$$$$$$$%%%%%%.....%%%...oo.oo.oo.oo.oo.",
"oo.oo.oo.oo.oo.....$$$...$$$$$$$%%%%%%.....$$$...oo.oo.oo.oo.oo.",
"oo.oo.oo.oo.oo.....$$$...$$$$$$$%%%%%%.....$$$...oo.oo.oo.oo.oo.",
"oo.oo.oo.oo.oo.....$$$...$$$$$$$%%%%%%.....$$$...oo.oo.oo.oo.oo.",
"oo.oooooooOOOO.....$$$$$$$$$$$$$%%%$$$$$$$$$$$...OOOOooooooooooo",
"ooooooooooOOOO.....$$$$$$$$$$$$$%%%$$$$$$$$$$$...OOOOooooooooooo",
"ooooooooooOOOO.....$$$$$$$$$$$$$%%%$$$$$$$$$$$...OOOOooooooooooo",
"ooooooooooOOOO.....$$$$$$$$$$$$$$$$$$$$$$$$$$$...OOOOooooooooooo",
"ooooooooooOOOO.....$$$$$$$$$$$$$$$$$$$$$$$$$$$...OOOOooooooooooo",
"ooooooooooOOOO.....$$$$$$$$$$$$$$$$$$$$$$$$$$$...OOOOooooooooooo",
"ooooooooooOOOO.....###$$$$$$$$$$$$$$$$$$$$$###...OOOOooooooooooo",
"ooooooooooOOOO.....###$$$$$$$$$$$$$$$$$$$$$###...OOOOooooooooooo",
"ooooooooooOOOO.....###$$$$$$$$$$$$$$$$$$$$$###...OOOOooooooooooo",
"ooooooooooOOOO.....###$$$$$$$$$$$$$$$$$$$$$###...OOOOooooooooooo",
"ooooooooooOOOO.....###$$$$$$$$$$$$$$$$$$$$$###...OOOOooooooooooo",
"ooooooooooOOOO.....###########################...OOOOooooooooooo",
"ooooooooooOOOO.....###########################...OOOOooooooooooo",
"ooooooooooOOOO.....###########################...OOOOooooooooooo",
"ooooooooooOOOO.....###########################...OOOOooooooooooo",
"ooooooooooOOOO.....###########################...OOOOooooooooooo",
"ooooooooooOOOO.....###########################...OOOOooooooooooo",
"ooooooooooOOOOOOOOOOOO#####################OOOOOOOOOOooooooooooo",
"ooooooooooOOOOOOOOOOOO#####################OOOOOOOOOOooooooooooo",
"ooooooooooOOOOOOOOOOOO#####################OOOOOOOOOOooooooooooo",
"ooooooooooOOOOOOOOOOOO#####################OOOOOOOOOOooooooooooo",
"ooooooooooooooOOOOOOOOOOOOOOOOOOOOOOOOOOOOOOOOOOOooooooooooooooo",
"ooooooooooooooOOOOOOOOOOOOOOOOOOOOOOOOOOOOOOOOOOOooooooooooooooo",
"XXXXXXXXXXXXXXXXXXXXXXXXXXXXXXXXXXXXXXXXXXXXXXXXXXXXXXXXXXXXXXXo",
"XXXXXXXXXXXXXXXXXXXXXXXXXXXXXXXXXXXXXXXXXXXXXXXXXXXXXXXXXXXXXXXo",
"XXXXXXXXXXXXXXXXXXXXXXXXXXXXXXXXXXXXXXXXXXXXXXXXXXXXXXXXXXXXXXXo"
};
